<?xml version="1.0" encoding="utf-8"?>
<!-- Generator: Adobe Illustrator 18.1.1, SVG Export Plug-In . SVG Version: 6.00 Build 0)  -->
<svg class="room-svg" id="home-icon" version="1.1" xmlns="http://www.w3.org/2000/svg" xmlns:xlink="http://www.w3.org/1999/xlink" x="0px" y="0px"
	 viewBox="0 0 16 16" enable-background="new 0 0 16 16" xml:space="preserve">
<path id="home-icon" d="M9,10v4H7v-4H9 M8,1C7.8,1,7.6,1.1,7.4,1.2l-7,5C0,6.5-0.1,7.1,0.2,7.6C0.4,7.9,0.7,8,1,8
	c0.2,0,0.4-0.1,0.6-0.2L2,7.5V15c0,0.6,0.4,1,1,1h2h6h2c0.6,0,1-0.4,1-1V7.5l0.4,0.3C14.6,7.9,14.8,8,15,8c0.3,0,0.6-0.1,0.8-0.4
	c0.3-0.4,0.2-1.1-0.2-1.4l-7-5C8.4,1.1,8.2,1,8,1L8,1z M4,14V6.1l4-2.9l4,2.9V14h-1V9c0-0.6-0.4-1-1-1H6C5.4,8,5,8.4,5,9v5H4L4,14z"
	/>
</svg>
